<?xml version="1.0" encoding="UTF-8"?>
<svg id="Calque_2" data-name="Calque 2" xmlns="http://www.w3.org/2000/svg" viewBox="0 0 66.16 66.16">
  <defs>
    <style>
      .cls-1 {
        fill: none;
        stroke: #fff;
        stroke-width: 4px;
      }

      .cls-1, .cls-2 {
        stroke-miterlimit: 10;
      }

      .cls-2 {
        fill: #1d1d1b;
        stroke: #1d1d1b;
      }
    </style>
  </defs>
  <g id="Calque_2-2" data-name="Calque 2">
    <g>
      <circle class="cls-2" cx="33.08" cy="33.08" r="32.58"/>
      <path class="cls-1" d="M15.79,22.99s-.1-1.6.32-2.02c.34-.34,1.62-.33,1.62-.33h30.8s1.58-.07,1.99.33c.47.47.3,2.3.3,2.3v19.72s.07,1.85-.39,2.31c-.39.39-1.84.31-1.84.31h-29.81s-2.06.17-2.59-.36-.4-2.49-.4-2.49v-19.78Z"/>
      <path class="cls-1" d="M16.94,21.6s10.29,8.72,13.79,11.48c.97.77,4,.78,4.96,0,3.44-2.76,13.88-11.24,13.88-11.24"/>
    </g>
  </g>
</svg>