<?xml version="1.0" encoding="UTF-8"?>
<svg id="Calque_2" data-name="Calque 2" xmlns="http://www.w3.org/2000/svg" viewBox="0 0 70.86 45.91">
  <defs>
    <style>
      .cls-1 {
        fill: none;
        stroke: #1d1d1b;
        stroke-miterlimit: 10;
        stroke-width: 2px;
      }

      .cls-2 {
        fill: #1d1d1b;
      }
    </style>
  </defs>
  <g id="Calque_3" data-name="Calque 3">
    <g>
      <path class="cls-1" d="M1.7,1.15c22.4-.2,45.4-.2,67.18,0"/>
      <line class="cls-1" x1="1.11" y1="2.33" x2="1.11" y2="43.74"/>
      <line class="cls-1" x1="2.76" y1="44.83" x2="68.72" y2="44.83"/>
      <line class="cls-1" x1="69.82" y1="1.81" x2="69.82" y2="43.81"/>
      <line class="cls-1" x1="2.22" y1="43.74" x2="25.08" y2="23.29"/>
      <line class="cls-1" x1="45.02" y1="22.33" x2="68.8" y2="43.71"/>
      <line class="cls-1" x1="68.88" y1="2.11" x2="37.11" y2="29.88"/>
      <line class="cls-1" x1="3.1" y1="2.71" x2="34.1" y2="29.88"/>
      <path class="cls-2" d="M.15,43.52c.03.21.05.42.09.63.01.05.03.1.04.14.05.13.1.28.18.39.11.16.22.31.37.43s.3.24.46.35c.17.12.35.19.54.27.09.04.19.06.29.08.2.03.4.07.61.05.17,0,.33-.03.48-.11.15-.05.29-.14.4-.26.12-.11.21-.25.26-.4.08-.15.11-.31.11-.48-.01-.32-.12-.66-.37-.88s-.55-.39-.88-.37c-.08,0-.17,0-.25,0l.33.04c-.11-.02-.21-.04-.31-.08l.3.13c-.15-.07-.28-.16-.41-.26l.25.2c-.07-.06-.14-.11-.2-.19l.2.25s-.05-.08-.07-.12l.13.3c-.05-.12-.06-.24-.08-.37l-.06-.4c-.04-.16-.11-.3-.22-.43-.09-.14-.21-.24-.35-.32-.14-.09-.3-.14-.46-.15-.17-.04-.33-.03-.5.02-.3.1-.59.29-.75.57l-.13.3c-.06.22-.06.44,0,.66H.15Z"/>
      <path class="cls-2" d="M68.35,45.91c.18-.02.35.02.53,0,.12-.01.25-.03.38-.05.02,0,.04,0,.06-.01.14-.04.27-.1.39-.16.04-.02.07-.04.1-.06.11-.08.23-.17.33-.26.03-.03.06-.06.08-.09.09-.11.18-.22.26-.33.1-.14.17-.33.23-.49.05-.12.06-.24.08-.37.01-.09.03-.18.03-.27,0-.15-.03-.3-.05-.44-.04-.16-.11-.3-.22-.43-.09-.14-.21-.24-.35-.32-.14-.09-.3-.14-.46-.15-.17-.04-.33-.03-.5.02l-.3.13c-.19.11-.34.26-.45.45l-.13.3c-.06.22-.06.44,0,.66v.02c-.01-.11-.03-.22-.04-.33,0,.06,0,.13,0,.19l.04-.33c-.01.08-.03.15-.06.22l.13-.3c-.03.07-.07.14-.12.2l.2-.25c-.05.07-.11.13-.18.18l.25-.2s-.1.07-.16.09l.3-.13s-.09.03-.14.04l.33-.04c-.18.02-.37-.01-.55,0-.17,0-.33.03-.48.11-.15.05-.29.14-.4.26-.12.11-.21.25-.26.4-.08.15-.11.31-.11.48l.04.33c.06.21.17.4.32.55l.25.2c.19.11.41.17.63.17h0Z"/>
      <path class="cls-2" d="M68.1,2.61c.1.02.25.04.36.05.2,0,.47-.07.64-.17.11-.07.21-.16.31-.24l-.25.2s.02-.01.02-.02l-.3.13h.01c-.11,0-.22.02-.33.04.01,0,.03,0,.04,0l-.33-.04c.12.02.24.04.36.06.11.02.22.04.33.09l-.3-.13c.05.02.1.05.14.08l-.25-.2s.06.06.09.09l-.2-.25s.03.05.05.08l-.13-.3s.03.09.04.13l-.04-.33c.02.17,0,.34-.03.51l.04-.33s0,.05,0,.07c-.05.17-.06.33-.02.5,0,.17.06.32.15.46.08.15.19.26.32.35.12.11.26.19.43.22l.33.04c.23,0,.44-.06.63-.17l.25-.2c.15-.16.26-.34.32-.55.03-.2.06-.4.08-.6,0-.09.02-.18.01-.27-.02-.32-.07-.55-.23-.84-.15-.27-.34-.43-.59-.6-.03-.02-.07-.04-.1-.06-.13-.06-.27-.12-.41-.17-.09-.03-.18-.04-.27-.06-.1-.02-.2-.04-.3-.05-.29-.05-.46-.08-.75,0s-.39.19-.61.37l.25-.2s-.01.01-.02.01l.3-.13h-.01c.11-.01.22-.03.33-.04h-.01c.11.02.22.03.33.05h-.01c-.17-.05-.33-.06-.5-.02-.17,0-.32.06-.46.15-.15.08-.26.19-.35.32-.11.12-.19.26-.22.43l-.04.33c0,.23.06.44.17.63l.2.25c.16.15.34.26.55.32h0Z"/>
      <path class="cls-2" d="M33.86,30.71c.61.01,1.22.03,1.83.03.52,0,1.06-.09,1.58-.03l-.27-.04h.03c.27.05.52.05.77-.1.21-.12.41-.36.46-.6.11-.48-.15-1.14-.7-1.23-.61-.1-1.21-.02-1.82,0s-1.26-.01-1.89-.03c-.52-.01-1.02.47-1,1s.44.99,1,1h0Z"/>
      <path class="cls-2" d="M2.64.23c-.23-.03-.46-.07-.69-.09-.12-.01-.22,0-.34.02-.2.03-.3.03-.5.16-.07.04-.2.15-.26.2-.08.07-.15.17-.2.26-.03.06-.11.24-.13.31,0,0,0,0,0,.01-.03.11-.03.24-.05.36l.04-.33s0,.03,0,.04l.13-.3s-.01.02-.02.03l.2-.25s-.05.05-.08.07c-.02.02-.04.04-.06.06-.08.09-.16.19-.23.3s-.11.22-.14.33c-.03.1-.05.25-.05.36,0,.12.02.24.05.36l-.04-.33h0c.53-.4,1.05-.8,1.58-1.2h0c.18.11.37.21.55.32-.09-.08-.19-.15-.28-.22-.02-.01-.03-.02-.05-.03-.04-.02-.26-.12-.31-.13s-.29-.04-.34-.04c-.24,0-.31.03-.49.11-.06.01-.11.04-.16.07l-.25.2c-.15.14-.28.37-.34.57-.02.07-.02.13-.03.21-.01.08-.02.15-.03.23-.02.3-.05.6-.08.9h2.5s0-.05,0-.08l-.04.33c0-.06.02-.12.05-.17l-.13.3c.02-.05.05-.11.09-.15l-.2.25s.08-.09.13-.12l-.25.2s.09-.06.14-.08l-.3.13s.1-.03.15-.04l-.33.04c.06,0,.12,0,.17,0l-.33-.04c.06,0,.13.03.19.05l-.3-.13c.05.02.1.05.15.09l-.25-.2s.08.07.11.11l-.2-.25s.02.02.02.03c.11.19.26.34.45.45.19.11.41.17.63.17.42,0,.88-.23,1.08-.62.06-.12.12-.23.18-.35.09-.14.14-.3.15-.46.04-.17.03-.33-.02-.5-.04-.16-.11-.3-.22-.43-.09-.14-.21-.24-.35-.32-.29-.15-.64-.23-.96-.13-.3.1-.6.28-.75.57-.06.12-.12.23-.18.35h2.16c-.08-.11-.16-.23-.26-.33s-.23-.19-.32-.26c-.03-.02-.06-.04-.1-.06-.12-.07-.26-.12-.39-.17-.17-.06-.36-.08-.53-.09s-.37.02-.54.07-.34.12-.48.22c-.11.08-.23.16-.33.26s-.19.23-.26.33c-.02.03-.05.06-.06.1-.07.12-.12.26-.17.39-.06.17-.08.36-.08.55,0,.17.03.33.11.48.05.15.14.29.26.4.11.12.25.21.4.26.15.08.31.11.48.11l.33-.04c.21-.06.4-.17.55-.32l.2-.25c.11-.19.17-.41.17-.63.02-.19.04-.38.06-.57.01-.13.01-.26.03-.39l-.04.33s0-.03.01-.04l-.13.3s0-.01,0-.01l-.2.25h0c-.08.06-.17.13-.25.19h0c-.1.04-.2.08-.3.12h0c-.11.01-.22.03-.33.04h0c-.11-.01-.22-.03-.33-.04h0c-.1-.04-.2-.08-.3-.12.02.01.04.02.06.04l-.25-.2s.01.01.02.02c0,0,0,0,0,0l.25.2c.1.05.2.1.3.13.22.06.44.06.66,0,.16-.04.3-.11.43-.22.14-.09.24-.21.32-.35.11-.19.17-.41.17-.63,0-.17-.03-.23-.05-.34l.04.33s0-.02,0-.03l-.04.33s0-.02,0-.03l-.13.3s.02-.05.04-.07l-.2.25s.08-.08.13-.12c0,0,0,0,.01-.01.03-.03.18-.23.2-.26,0,0,.01-.02.01-.02.02-.04.11-.26.07-.16-.05.11.05-.11.07-.16,0,0,0-.01,0-.02.03-.12.03-.25.05-.37l-.04.33s0-.01,0-.02l-.13.3s0,0,0,0l-.2.25s0,0,0,0l-.25.2s0,0,.01,0l-.3.13s.02,0,.03,0l-.33.04c.12-.02.26.01.38.03l-.33-.04s.1.01.15.02c.17.05.33.06.5.02.17,0,.32-.06.46-.15.15-.08.26-.19.35-.32.11-.12.19-.26.22-.43l.04-.33c0-.23-.06-.44-.17-.63l-.2-.25c-.16-.15-.34-.26-.55-.32h0Z"/>
      <path class="cls-2" d="M2.3.33c-.11-.02-.23-.04-.35-.05-.01,0-.02,0-.04,0-.12,0-.32.04-.38.05-.02,0-.04,0-.06.01-.01,0-.02,0-.03.01-.1.04-.22.09-.32.13l1.26,2.16c.07-.04.13-.09.2-.13.15-.08.26-.19.35-.32.11-.12.19-.26.22-.43.05-.17.06-.33.02-.5,0-.17-.06-.32-.15-.46l-.2-.25c-.16-.15-.34-.26-.55-.32l-.33-.04c-.23,0-.44.06-.63.17-.08.04-.16.08-.23.14-.16.12-.33.24-.46.39-.02.02-.03.04-.05.06-.08.1-.16.2-.23.3-.03.04-.06.08-.08.13-.01.02-.02.05-.03.07-.05.12-.11.24-.15.36-.02.05-.03.1-.04.15-.05.17-.06.33-.02.5,0,.17.06.32.15.46.08.15.19.26.32.35.12.11.26.19.43.22l.33.04c.23,0,.44-.06.63-.17l.25-.2c.15-.16.26-.34.32-.55.01-.07.03-.13.06-.2l-.13.3c.04-.09.09-.18.15-.26l-.2.25c.07-.09.15-.17.25-.25l-.25.2c.08-.06.16-.11.25-.15L1.32.35c-.07.04-.13.09-.2.13-.15.08-.26.19-.35.32-.11.12-.19.26-.22.43-.05.17-.06.33-.02.5,0,.17.06.32.15.46l.2.25c.16.15.34.26.55.32l.33.04c.23,0,.44-.06.63-.17h.01c-.1.04-.2.08-.3.12.03-.01.06-.02.1-.03l-.33.04s.06,0,.09,0l-.33-.04h.01c.17.05.33.06.5.02.17,0,.32-.06.46-.15.15-.08.26-.19.35-.32.11-.12.19-.26.22-.43l.04-.33c0-.23-.06-.44-.17-.63l-.2-.25c-.16-.15-.34-.26-.55-.32h0Z"/>
    </g>
  </g>
</svg>