<?xml version="1.0" encoding="UTF-8"?>
<svg id="Calque_2" data-name="Calque 2" xmlns="http://www.w3.org/2000/svg" viewBox="0 0 100.18 100.64">
  <defs>
    <style>
      .cls-1 {
        fill: #1d1d1b;
        stroke: #1d1d1b;
        stroke-miterlimit: 10;
      }
    </style>
  </defs>
  <g id="Calque_3" data-name="Calque 3">
    <path class="cls-1" d="M37.82,89.13s.43,7.37,0,9.78c-.06.31-.35.95-.62,1.12s-.98.12-1.31.07c-1.08-.17-3.27-.52-4.3-.89-1.7-.62-4.83-2.46-6.37-3.41-1.85-1.15-5.47-3.6-7.11-5.04-1.18-1.03-3.24-3.43-4.3-4.59-.79-.88-2.39-2.62-3.11-3.56-.8-1.03-2.33-3.16-2.96-4.3-1.37-2.46-3.61-7.72-4.59-10.37-.59-1.59-1.61-4.85-1.93-6.52s-.52-5.28-.59-7.05c-.09-2.13-.25-6.4,0-8.51.17-1.4.98-4.12,1.33-5.48.42-1.64,1.2-4.93,1.78-6.52.61-1.68,2.13-4.93,2.96-6.52.9-1.72,2.8-5.13,4-6.67s4.2-4.24,5.63-5.63c1.28-1.24,3.79-3.78,5.19-4.89s4.26-3.01,5.78-3.85c1.35-.75,4.19-1.98,5.63-2.52,1.56-.58,4.75-1.55,6.37-1.93,1.13-.26,3.44-.55,4.59-.74,1.94-.32,4.8-.63,7.74-.63,3.14,0,6.51.25,8.47.81,1.8.51,5.32,1.77,7.05,2.49,1.97.82,5.87,2.61,7.7,3.7,2.05,1.23,5.91,4.06,7.7,5.63s4.91,4.88,6.37,6.67,3.95,5.33,5.04,7.26c.85,1.5,2.11,4.73,2.67,6.37.52,1.52,1.26,4.66,1.63,6.22s1.04,4.87,1.19,6.52c.28,3.09.34,10.18,0,13.19-.22,1.96-1.17,5.82-1.78,7.7-.51,1.58-1.67,4.71-2.37,6.22-1,2.18-3.21,6.48-4.59,8.44-.96,1.38-3.31,3.8-4.44,5.04s-3.3,3.82-4.59,4.89c-1.42,1.18-4.63,3.06-6.22,4-1.37.81-4.2,2.28-5.63,2.96-.96.46-2.95,1.28-4,1.48-.47.09-1.45.04-1.93,0-.28-.02-.89-.16-1.06-.38-.15-.19-.13-.72-.12-.96.07-4.33-.15-17.33-.15-17.33l-.74-3.11-.74-1.93c-1.54-1.02-1.73-2.41-1.73-2.41,0,0,3.56-.49,4.69-.55l4.44-1.33,4-2.22,3.11-2.52,2.81-3.41,2.37-4.44,1.04-4.3v-9.04l-1.04-4.74-2.07-2.96-1.93-2.37-.44-1.04,1.33-3.85.15-4-1.19-3.26-.59-2.07h-2.67l-2.07.89-2.67,1.04-3.56,1.78-1.63,1.33-1.48.3-4-1.04-3.56-.59-8.74-.15-3.7.59-4.15,1.19-3.41-2.37-3.26-1.33-3.85-1.48-3.26-.3-.89,3.26-.44,3.11-.3,2.67.44,1.93.59,2.07-.3.74-2.07,3.85-1.63,2.67-1.04,4-.15,6.52.74,4.3,1.19,3.26,1.48,3.7,2.81,3.56,2.52,2.22,1.93,1.19,2.81,1.48c1.46.27,4.47.81,5.93,1.04l2.51.79h0s-.71,1.39-.88,1.88c-.41,1.15-.52,3.72-1.19,4.74-.23.35-.94.87-1.33,1.04-.52.22-2.22.3-2.22.3,0,0-3.58.4-4.74.15-.89-.2-2.53-1.08-3.26-1.63-.4-.3-1.02-1.09-1.33-1.48-.4-.5-1.09-1.57-1.48-2.07s-1.22-1.45-1.63-1.93c-.29-.34-.84-1.05-1.19-1.33-.4-.33-1.34-.77-1.78-1.04-.54-.33-1.61-1.06-2.22-1.19-.47-.1-1.93.15-1.93.15,0,0-1.56.04-1.78.44-.15.28.26.93.44,1.19.21.3.57.99.89,1.19.35.22,1.25.13,1.63.3.33.15.82.74,1.04,1.04.27.36.77,1.12,1.04,1.48.25.34.84.96,1.04,1.33.18.34.31,1.12.44,1.48s.56,1,.74,1.33c.21.39.55,1.23.74,1.63.11.22.44.89.44.89,0,0,.95,1.37,1.33,1.78.47.5,1.51,1.39,2.07,1.78.63.44,1.94,1.24,2.67,1.48.53.18,1.67.23,2.22.3,1.04.12,3.11.4,4.15.44.99.04,3.95-.1,3.95-.1"/>
  </g>
</svg>