<?xml version="1.0" encoding="UTF-8"?>
<svg id="Calque_2" data-name="Calque 2" xmlns="http://www.w3.org/2000/svg" viewBox="0 0 63.04 16383">
  <defs>
    <style>
      .cls-1 {
        stroke-linejoin: round;
      }

      .cls-1, .cls-2 {
        fill: none;
        stroke: #1d1d1b;
        stroke-linecap: round;
        stroke-width: 2px;
      }

      .cls-2 {
        stroke-miterlimit: 10;
      }
    </style>
  </defs>
  <g id="Calque_3" data-name="Calque 3">
    <g>
      <circle class="cls-2" cx="14.39" cy="8007.02" r="3.41"/>
      <rect class="cls-1" x="10.97" y="8015.4" width="6.83" height="30"/>
      <rect class="cls-2" x="1" y="7994.34" width="61.04" height="61.04" rx="2.83" ry="2.83"/>
      <rect class="cls-2" x="5.46" y="7998.41" width="50.96" height="50.96" rx="2.83" ry="2.83"/>
      <path class="cls-2" d="M51.31,8022.97l.31,22.83-6.19-.07s.17-13.85.2-20.51c0-.18-.03-.35-.03-.51,0-.21.08-.41.08-.6,0-.22-.04-.41-.15-.6h0l-1.24-1.3-.63-.68-.82-.65-.9-.56s-.86-.48-1.17-.59c-.36-.13-1.09-.33-1.47-.37-.32-.03-.97.03-1.29.06-.3.03-.92.07-1.19.2s-1.04.58-1.04.58l-.96.77-.9.8-.93.82-.85.67s-.56.53-.56.67c.03,5.2,0,22.08,0,22.08h-5.92v-30.08h5.55l.38,2.2s.02.43.05.89c.03.38.04.42.11.36.28-.22,0,0,.25-.44.27-.49.74-.92.98-1.21.09-.11.33-.26.44-.34.23-.16.71-.46.96-.59.23-.12.71-.33.94-.45.32-.16.95-.52,1.28-.65.26-.11.81-.27,1.09-.33.25-.06.75-.12,1-.15.32-.03.96-.08,1.28-.08.26,0,.77.06,1.02.08.35.03,1.06.08,1.41.12.33.03,1.01.07,1.33.16.26.07.75.33,1,.44.27.11.82.31,1.09.43.31.14.96.39,1.23.59.16.12.52.34.65.5.22.25.69.75.96.94.39.29.75,1.03,1.06,1.25.45.33.94,1.62.94,1.62l.46,1.07.17.64h0Z"/>
    </g>
  </g>
</svg>