<?xml version="1.0" encoding="UTF-8"?>
<svg id="Calque_2" data-name="Calque 2" xmlns="http://www.w3.org/2000/svg" viewBox="0 0 61.95 61.95">
  <defs>
    <style>
      .cls-1 {
        fill: none;
        stroke: #1d1d1b;
        stroke-miterlimit: 10;
        stroke-width: 2px;
      }
    </style>
  </defs>
  <g id="Calque_2-2" data-name="Calque 2">
    <g>
      <path class="cls-1" d="M30.97,1c9.64,0,18.22,4.55,23.7,11.63"/>
      <path class="cls-1" d="M56.9,15.92c2.57,4.42,4.05,9.57,4.05,15.05,0,16.55-13.42,29.97-29.97,29.97S1,47.53,1,30.97,14.42,1,30.97,1"/>
      <path class="cls-1" d="M54.68,12.63c.81,1.05,1.55,2.15,2.22,3.3"/>
      <path class="cls-1" d="M22.32,13.25c2.55,2.81,6.27,4.92,4.49,9.57-.45,1.05-1.99,1.53-1.94,2.75-.08,1.2-.19,2.18.91,3.11,0,0,8.78,8.88,8.78,8.88.19.23.47.39.81.5,1.34.42,2.79-.14,3.61-1.28.59-.82,1.25-1.66,2.22-1.61,1.24.06,1.93-.36,3.13.02.8.26.93,1.13,1.48,1.48,2.75,1.74,6.08,4.85,2.8,8.35-.18.19-.39.34-.61.49-1.12.72-3.86,2.84-4.97,3.3-1.03.43-4.57-.04-5.91.06-1.28-.03-2.34-.56-3.28-.83-.4-.11-.76-.31-1.09-.56-.81-.61-2.01-1.35-2.93-1.8-.2-.1-.39-.21-.57-.34-.94-.71-3.23-2.29-4.31-2.94-.27-.16-.51-.35-.73-.58-2.76-2.91-5.95-6.25-8.18-9.61-.16-.24-.29-.5-.38-.78-.48-1.44-1.8-4.37-1.65-5.54.19-1.76-.53-6.65.84-8.09,1.68-1.36,4.71-7.07,7.47-4.58Z"/>
    </g>
  </g>
</svg>