<?xml version="1.0" encoding="UTF-8"?>
<svg id="Calque_2" data-name="Calque 2" xmlns="http://www.w3.org/2000/svg" viewBox="0 0 50.65 49.82">
  <defs>
    <style>
      .cls-1 {
        fill: #1d1d1b;
        stroke: #1d1d1b;
        stroke-miterlimit: 10;
      }
    </style>
  </defs>
  <g id="Calque_5" data-name="Calque 5">
    <path class="cls-1" d="M6.21,1.23c.84-.37,2.57-1.19,3.03-.39,1.57,2.78,6.81,9.54,8.02,12.98.19.52.45.98.16,1.45-.72,1.16-2.28,1.84-3.01,5.42-.42,2.07-.61,1.77-.31,1.88.18.06.4.74.66,1.05,2.68,3.17,8.31,9.84,12.12,11.49.91.39,2.27,1.06,3.16.63.94-.46,2.61-1.32,3.58-1.71.9-.37,3.27-1.23,3.27-1.23,0,0,10.18,5.86,13.1,8.31.64.53-.88,2.09-1.44,2.99-.93,1.5-3.93,3.91-5.56,4.59-2.28.95-7.51.69-9.88,0-3.99-1.17-10.87-6.24-14.02-8.95-4.31-3.7-11.82-12.35-15-17.05-.94-1.38-2.64-4.34-3.03-5.97-.57-2.4-.89-7.58,0-9.88.69-1.78,3.4-4.86,5.15-5.63Z"/>
  </g>
</svg>